<?xml version="1.0" encoding="UTF-8" standalone="no"?>
<!-- Created with Inkscape (http://www.inkscape.org/) -->

<svg
   version="1.1"
   id="svg824"
   width="1080"
   height="1080"
   viewBox="0 0 1080 1080"
   sodipodi:docname="logo.svg"
   inkscape:version="1.1.2 (b8e25be833, 2022-02-05)"
   inkscape:export-filename="C:\Users\thejo\Documents\Workspace\Cours\GAILLARD\Ja Ken Pon\assets\image\logo_transp.png"
   inkscape:export-xdpi="88.888885"
   inkscape:export-ydpi="88.888885"
   xmlns:inkscape="http://www.inkscape.org/namespaces/inkscape"
   xmlns:sodipodi="http://sodipodi.sourceforge.net/DTD/sodipodi-0.dtd"
   xmlns="http://www.w3.org/2000/svg"
   xmlns:svg="http://www.w3.org/2000/svg">
  <defs
     id="defs828">
    <rect
       x="267.98508"
       y="352.61194"
       width="468.47015"
       height="125.93284"
       id="rect15245" />
  </defs>
  <sodipodi:namedview
     id="namedview826"
     pagecolor="#505050"
     bordercolor="#eeeeee"
     borderopacity="1"
     inkscape:pageshadow="0"
     inkscape:pageopacity="0"
     inkscape:pagecheckerboard="0"
     showgrid="false"
     inkscape:zoom="0.4962963"
     inkscape:cx="66.492537"
     inkscape:cy="423.13433"
     inkscape:window-width="1366"
     inkscape:window-height="745"
     inkscape:window-x="-8"
     inkscape:window-y="-8"
     inkscape:window-maximized="1"
     inkscape:current-layer="layer1" />
  <g
     inkscape:groupmode="layer"
     id="layer1"
     inkscape:label="bg"
     style="display:none">
    <rect
       style="display:inline;fill:#ffffff;fill-opacity:1;stroke:none;stroke-linejoin:round"
       id="rect81758"
       width="1080"
       height="1080"
       x="0"
       y="0"
       inkscape:export-filename="C:\Users\thejo\Documents\Workspace\Cours\GAILLARD\Ja Ken Pon\assets\image\rect81758.png"
       inkscape:export-xdpi="88.889999"
       inkscape:export-ydpi="88.889999" />
  </g>
  <g
     inkscape:groupmode="layer"
     id="layer2"
     inkscape:label="Image 2"
     style="display:inline">
    <path
       style="display:inline;fill:#ab1547;fill-opacity:1;stroke:none;stroke-width:1.99726px;stroke-linecap:butt;stroke-linejoin:miter;stroke-opacity:1"
       d="m 830.25434,240.29712 h 175.05806 l 31.1885,31.1885 v 284.72092 l -37.72795,37.72802 H 834.27864 V 562.24303 H 999.27595 V 278.52819 H 830.25434 Z"
       id="path948" />
    <g
       aria-label="BTSSIO"
       id="text29511"
       style="font-size:133.333px;line-height:1.25;display:inline"
       transform="matrix(1.997257,0,0,1.997257,-471.61439,-393.53389)">
      <path
         d="m 276.87361,359.2107 h 27.19993 q 17.73329,0 26.93326,5.33332 9.19998,5.33332 9.19998,18.26662 0,8.39998 -4.66666,13.99997 -4.66665,5.46665 -13.46663,7.06665 v 0.66666 q 5.99999,1.06667 10.79997,3.59999 4.93333,2.53333 7.73332,7.19998 2.79999,4.66666 2.79999,11.99997 0,12.9333 -8.93331,19.99995 -8.79998,7.06665 -24.13327,7.06665 h -33.46658 z m 11.99997,40.53323 h 17.59995 q 12.1333,0 16.66663,-3.86665 4.66665,-3.99999 4.66665,-11.73331 0,-7.86664 -5.59998,-11.19997 -5.46666,-3.46665 -17.59996,-3.46665 h -15.73329 z m 0,9.99998 v 34.53324 h 19.19995 q 12.66663,0 17.59995,-4.93332 4.93332,-4.93332 4.93332,-12.9333 0,-7.46664 -5.19998,-11.99997 -5.06666,-4.66665 -18.26662,-4.66665 z"
         id="path41431" />
      <path
         d="M 393.67326,454.41046 H 381.67329 V 369.74401 H 351.94003 V 359.2107 h 71.33316 v 10.53331 h -29.59993 z"
         id="path41433" />
      <path
         d="m 491.67297,428.94386 q 0,12.66663 -9.19998,19.73328 -9.19997,7.06665 -24.79993,7.06665 -7.99998,0 -14.79997,-1.2 -6.79998,-1.19999 -11.3333,-3.33332 v -11.46664 q 4.79999,2.13333 11.86664,3.86666 7.19998,1.73333 14.79996,1.73333 10.5333,0 15.99996,-4.13332 5.46665,-4.13333 5.46665,-11.19998 0,-4.66665 -1.99999,-7.86664 -2,-3.19999 -6.93332,-5.86665 -4.93332,-2.66666 -13.46663,-5.86666 -12.26664,-4.39998 -18.39996,-10.79997 -6.13331,-6.39998 -6.13331,-17.46662 0,-7.46665 3.86665,-12.9333 3.86666,-5.46665 10.66664,-8.39998 6.79999,-2.93333 15.86663,-2.93333 7.73331,0 14.26663,1.46667 6.53332,1.46666 11.99997,3.86665 l -3.73333,10.26664 q -4.93332,-2.13332 -10.79997,-3.59999 -5.86665,-1.46666 -11.99997,-1.46666 -8.93331,0 -13.46663,3.86666 -4.53332,3.73332 -4.53332,9.99997 0,4.79999 1.99999,7.99998 2,3.19999 6.53332,5.86665 4.53332,2.53333 12.26664,5.33332 8.39997,3.06666 14.13329,6.66665 5.86665,3.46666 8.79998,8.39998 3.06666,4.93332 3.06666,12.39997 z"
         id="path41435" />
      <path
         d="m 564.87277,428.94386 q 0,12.66663 -9.19998,19.73328 -9.19997,7.06665 -24.79994,7.06665 -7.99997,0 -14.79996,-1.2 -6.79998,-1.19999 -11.3333,-3.33332 v -11.46664 q 4.79999,2.13333 11.86663,3.86666 7.19999,1.73333 14.79997,1.73333 10.5333,0 15.99996,-4.13332 5.46665,-4.13333 5.46665,-11.19998 0,-4.66665 -2,-7.86664 -1.99999,-3.19999 -6.93331,-5.86665 -4.93332,-2.66666 -13.46663,-5.86666 -12.26664,-4.39998 -18.39996,-10.79997 -6.13331,-6.39998 -6.13331,-17.46662 0,-7.46665 3.86665,-12.9333 3.86666,-5.46665 10.66664,-8.39998 6.79998,-2.93333 15.86663,-2.93333 7.73331,0 14.26663,1.46667 6.53331,1.46666 11.99997,3.86665 l -3.73333,10.26664 q -4.93332,-2.13332 -10.79997,-3.59999 -5.86665,-1.46666 -11.99997,-1.46666 -8.93331,0 -13.46663,3.86666 -4.53332,3.73332 -4.53332,9.99997 0,4.79999 1.99999,7.99998 2,3.19999 6.53332,5.86665 4.53332,2.53333 12.26663,5.33332 8.39998,3.06666 14.1333,6.66665 5.86665,3.46666 8.79998,8.39998 3.06666,4.93332 3.06666,12.39997 z"
         id="path41437"
         style="fill:#ab1547;fill-opacity:1" />
      <path
         d="m 610.87261,454.41046 h -34.39992 v -6.93331 l 11.19997,-2.53333 v -76.13314 l -11.19997,-2.66666 v -6.93332 h 34.39992 v 6.93332 l -11.19998,2.66666 v 76.13314 l 11.19998,2.53333 z"
         id="path41439"
         style="fill:#ab1547;fill-opacity:1" />
      <path
         d="m 712.33911,406.67725 q 0,14.79996 -5.06665,25.8666 -4.93332,10.93331 -14.79997,17.06662 -9.7333,6.13332 -23.99993,6.13332 -14.79997,0 -24.66661,-6.13332 -9.73331,-6.13331 -14.53329,-17.19995 -4.79999,-11.06664 -4.79999,-25.8666 0,-14.5333 4.79999,-25.4666 4.79998,-11.06664 14.53329,-17.19996 9.86664,-6.13332 24.79994,-6.13332 14.26663,0 23.99994,6.13332 9.73331,5.99998 14.66663,17.06662 5.06665,10.93331 5.06665,25.73327 z m -75.19981,0 q 0,17.99995 7.59998,28.39993 7.59998,10.26664 23.73328,10.26664 16.13329,0 23.59994,-10.26664 7.59998,-10.39998 7.59998,-28.39993 0,-17.99995 -7.46665,-28.13326 -7.46665,-10.26664 -23.59994,-10.26664 -16.26663,0 -23.86661,10.26664 -7.59998,10.13331 -7.59998,28.13326 z"
         id="path41441" />
    </g>
    <rect
       style="display:inline;fill:#ab1547;fill-opacity:1;stroke:none;stroke-width:1.99726;stroke-linejoin:round"
       id="rect43236"
       width="547.30804"
       height="66.401344"
       x="43.499084"
       y="745.34973" />
    <text
       xml:space="preserve"
       style="font-style:normal;font-weight:normal;font-size:122.819px;line-height:1.25;font-family:sans-serif;display:inline;fill:#000000;fill-opacity:1;stroke:none;stroke-width:2.55873"
       x="86.475548"
       y="703.12231"
       id="text45022"
       transform="scale(1.0674484,0.93681344)"><tspan
         sodipodi:role="line"
         id="tspan45020"
         x="86.475548"
         y="703.12231"
         style="font-size:122.819px;stroke-width:2.55873">LYCEE</tspan></text>
    <text
       xml:space="preserve"
       style="font-style:normal;font-weight:normal;font-size:79.8903px;line-height:1.25;font-family:sans-serif;display:inline;fill:#000000;fill-opacity:1;stroke:none;stroke-width:1.99726"
       x="103.77444"
       y="735.25909"
       id="text52312"><tspan
         sodipodi:role="line"
         id="tspan52310"
         x="103.77444"
         y="735.25909"
         style="stroke-width:1.99726">SIMONE</tspan></text>
    <text
       xml:space="preserve"
       style="font-style:normal;font-weight:normal;font-size:193.131px;line-height:0;font-family:sans-serif;letter-spacing:20.2072px;word-spacing:0px;display:inline;fill:#000000;fill-opacity:1;stroke:none;stroke-width:2.26322"
       x="105.2168"
       y="949.59875"
       id="text54779"
       transform="scale(1.1331746,0.88247651)"><tspan
         sodipodi:role="line"
         id="tspan54777"
         x="105.2168"
         y="949.59875"
         style="font-size:193.131px;stroke-width:2.26322"><tspan
   style="font-size:180.464px;stroke-width:2.26322"
   id="tspan84771">w</tspan>e<tspan
   style="font-size:213.927px;stroke-width:2.26322"
   id="tspan68977">i</tspan><tspan
   style="font-size:203.342px;stroke-width:2.26322"
   id="tspan65465" /></tspan></text>
    <text
       xml:space="preserve"
       style="font-style:normal;font-weight:normal;font-size:333.333px;line-height:1.25;font-family:sans-serif;display:inline;fill:#000000;fill-opacity:1;stroke:none"
       x="511.9256"
       y="840.61267"
       id="text100637"><tspan
         sodipodi:role="line"
         id="tspan100635"
         x="511.9256"
         y="840.61267"
         rotate="0 0"
         style="font-size:333.333px">l</tspan></text>
  </g>
</svg>
